<svg width="55" height="57" viewBox="0 0 55 57" fill="none" xmlns="http://www.w3.org/2000/svg">
<path d="M51.9185 24.9025C52.8662 22.5825 53.1829 20.053 52.8365 17.5709C52.49 15.0888 51.4926 12.7427 49.9457 10.7709C48.3988 8.79911 46.3576 7.27195 44.0293 6.34459C41.7011 5.41723 39.1688 5.12272 36.6899 5.49098C35.1536 3.5121 33.1211 1.97497 30.7986 1.03567C28.4762 0.096369 25.9465 -0.211648 23.4665 0.142894C20.9866 0.497436 18.6445 1.50191 16.6783 3.05432C14.7121 4.60674 13.1917 6.6518 12.2714 8.98187C9.78834 9.32176 7.43949 10.3129 5.46356 11.8547C3.48763 13.3964 1.95505 15.4337 1.02155 17.7596C0.0880512 20.0855 -0.21309 22.6171 0.148728 25.097C0.510545 27.577 1.52243 29.917 3.08154 31.8792C2.32071 33.7437 1.96525 35.7488 2.03875 37.7612C2.11226 39.7736 2.61304 41.7474 3.50787 43.5514C4.40269 45.3554 5.67107 46.9484 7.22877 48.2247C8.78648 49.5009 10.5979 50.4311 12.5427 50.9536C13.7481 51.2836 14.9917 51.454 16.2414 51.4606C16.9347 51.4597 17.627 51.4081 18.3127 51.306C19.8492 53.2842 21.8818 54.8206 24.2041 55.7593C26.5264 56.698 29.0557 57.0056 31.5353 56.6508C34.0149 56.2961 36.3564 55.2916 38.3223 53.7393C40.2882 52.187 41.8084 50.1423 42.7286 47.8126C45.2117 47.4727 47.5605 46.4815 49.5364 44.9398C51.5124 43.3981 53.0449 41.3608 53.9784 39.0349C54.9119 36.709 55.2131 34.1774 54.8513 31.6974C54.4894 29.2174 53.4776 26.8774 51.9185 24.9152V24.9025ZM31.5562 30.7334L27.5 33.0758L23.4438 30.7334V26.0484L27.5 23.706L31.5562 26.0484V30.7334ZM41.4052 9.73988C43.9609 10.4231 46.1483 12.0779 47.501 14.3512C48.8537 16.6246 49.2644 19.3366 48.6456 21.9085C48.4049 21.7474 48.1588 21.5943 47.9079 21.4497L36.6265 14.9242C36.3182 14.7462 35.9684 14.6525 35.6124 14.6525C35.2564 14.6525 34.9067 14.7462 34.5984 14.9242L23.4438 21.366V16.6811L33.7111 10.7539C34.8629 10.0849 36.136 9.65079 37.4567 9.47673C38.7773 9.30268 40.1194 9.39211 41.4052 9.73988ZM5.40627 17.9791C6.69904 15.725 8.81256 14.0575 11.3055 13.3246C11.2865 13.614 11.2764 13.904 11.2751 14.1941V27.2197C11.275 27.5757 11.3687 27.9256 11.5467 28.234C11.7247 28.5424 11.9808 28.7985 12.2892 28.9765L23.4438 35.4158L19.3876 37.7709L9.12024 31.8311C6.79123 30.4863 5.0918 28.2715 4.39577 25.6737C3.69974 23.076 4.06414 20.3081 5.4088 17.9791H5.40627ZM29.5281 52.7282C26.932 52.7349 24.4332 51.7407 22.5514 49.9522C22.8049 49.823 23.0584 49.6861 23.312 49.539L34.5984 43.0262C34.9064 42.8484 35.1622 42.5927 35.3402 42.2848C35.5182 41.9769 35.6121 41.6276 35.6124 41.2719V28.3909L39.6687 30.7334V42.5877C39.6687 45.2771 38.6003 47.8564 36.6986 49.7581C34.7968 51.6598 32.2176 52.7282 29.5281 52.7282Z" fill="#D9D9D9"/>
</svg>
