<svg width="27" height="23" viewBox="0 0 27 23" fill="none" xmlns="http://www.w3.org/2000/svg">
<g style="mix-blend-mode:plus-lighter">
<path d="M26.67 10.4546L16.5453 0.329936C16.388 0.172429 16.1875 0.0651449 15.9691 0.0216648C15.7508 -0.0218153 15.5245 0.000464039 15.3188 0.0856825C15.1131 0.170901 14.9374 0.315226 14.8138 0.500388C14.6902 0.685549 14.6243 0.90322 14.6245 1.12585V10.1255H1.12496C0.826601 10.1255 0.540464 10.244 0.329493 10.455C0.118522 10.666 0 10.9521 0 11.2505C0 11.5488 0.118522 11.835 0.329493 12.0459C0.540464 12.2569 0.826601 12.3754 1.12496 12.3754H14.6245V21.3751C14.6243 21.5977 14.6902 21.8154 14.8138 22.0006C14.9374 22.1857 15.1131 22.3301 15.3188 22.4153C15.5245 22.5005 15.7508 22.5228 15.9691 22.4793C16.1875 22.4358 16.388 22.3285 16.5453 22.171L26.67 12.0464C26.7746 11.9419 26.8575 11.8178 26.9142 11.6813C26.9708 11.5447 26.9999 11.3983 26.9999 11.2505C26.9999 11.1026 26.9708 10.9563 26.9142 10.8197C26.8575 10.6831 26.7746 10.559 26.67 10.4546ZM16.8744 18.6597V3.84121L24.2837 11.2505L16.8744 18.6597Z" fill="white"/>
</g>
</svg>
