<svg width="28" height="30" viewBox="0 0 28 30" fill="none" xmlns="http://www.w3.org/2000/svg">
<path d="M18 0.266113C18.3536 0.266113 18.6928 0.406589 18.9428 0.656638C19.1929 0.906686 19.3333 1.24582 19.3333 1.59945V2.93278H20.6667C21.7275 2.93278 22.745 3.35421 23.4951 4.10435C24.2452 4.8545 24.6667 5.87191 24.6667 6.93278V8.26611H26C26.3536 8.26611 26.6928 8.40659 26.9428 8.65664C27.1929 8.90669 27.3333 9.24582 27.3333 9.59945C27.3333 9.95307 27.1929 10.2922 26.9428 10.5423C26.6928 10.7923 26.3536 10.9328 26 10.9328H24.6667V16.2661H26C26.3536 16.2661 26.6928 16.4066 26.9428 16.6566C27.1929 16.9067 27.3333 17.2458 27.3333 17.5994C27.3333 17.9531 27.1929 18.2922 26.9428 18.5423C26.6928 18.7923 26.3536 18.9328 26 18.9328H24.6667V20.2661C24.6667 21.327 24.2452 22.3444 23.4951 23.0945C22.745 23.8447 21.7275 24.2661 20.6667 24.2661H19.3333V25.5994C19.3333 25.9531 19.1929 26.2922 18.9428 26.5423C18.6928 26.7923 18.3536 26.9328 18 26.9328C17.6464 26.9328 17.3072 26.7923 17.0572 26.5423C16.8071 26.2922 16.6667 25.9531 16.6667 25.5994V24.2661H11.3333V25.5994C11.3333 25.9531 11.1929 26.2922 10.9428 26.5423C10.6928 26.7923 10.3536 26.9328 10 26.9328C9.64638 26.9328 9.30725 26.7923 9.0572 26.5423C8.80715 26.2922 8.66667 25.9531 8.66667 25.5994V24.2661H7.33334C6.27247 24.2661 5.25506 23.8447 4.50491 23.0945C3.75477 22.3444 3.33334 21.327 3.33334 20.2661V18.9328H2.00001C1.64638 18.9328 1.30724 18.7923 1.0572 18.5423C0.807147 18.2922 0.666672 17.9531 0.666672 17.5994C0.666672 17.2458 0.807147 16.9067 1.0572 16.6566C1.30724 16.4066 1.64638 16.2661 2.00001 16.2661H3.33334V10.9328H2.00001C1.64638 10.9328 1.30724 10.7923 1.0572 10.5423C0.807147 10.2922 0.666672 9.95307 0.666672 9.59945C0.666672 9.24582 0.807147 8.90669 1.0572 8.65664C1.30724 8.40659 1.64638 8.26611 2.00001 8.26611H3.33334V6.93278C3.33334 5.87191 3.75477 4.8545 4.50491 4.10435C5.25506 3.35421 6.27247 2.93278 7.33334 2.93278H8.66667V1.59945C8.66667 1.24582 8.80715 0.906686 9.0572 0.656638C9.30725 0.406589 9.64638 0.266113 10 0.266113C10.3536 0.266113 10.6928 0.406589 10.9428 0.656638C11.1929 0.906686 11.3333 1.24582 11.3333 1.59945V2.93278H16.6667V1.59945C16.6667 1.24582 16.8071 0.906686 17.0572 0.656638C17.3072 0.406589 17.6464 0.266113 18 0.266113ZM16.6667 8.26611H11.3333C10.6261 8.26611 9.94782 8.54707 9.44772 9.04716C8.94762 9.54726 8.66667 10.2255 8.66667 10.9328V16.2661C8.66667 16.9734 8.94762 17.6516 9.44772 18.1517C9.94782 18.6518 10.6261 18.9328 11.3333 18.9328H16.6667C17.3739 18.9328 18.0522 18.6518 18.5523 18.1517C19.0524 17.6516 19.3333 16.9734 19.3333 16.2661V10.9328C19.3333 10.2255 19.0524 9.54726 18.5523 9.04716C18.0522 8.54707 17.3739 8.26611 16.6667 8.26611ZM16.6667 10.9328V16.2661H11.3333V10.9328H16.6667Z" fill="#D9D9D9"/>
</svg>
