<svg width="22" height="27" viewBox="0 0 22 27" fill="none" xmlns="http://www.w3.org/2000/svg">
<path d="M3.00016 26.9333C2.26683 26.9333 1.63927 26.6724 1.1175 26.1506C0.595718 25.6288 0.334385 25.0008 0.333496 24.2666V8.2666L8.3335 0.266602H19.0002C19.7335 0.266602 20.3615 0.527935 20.8842 1.0506C21.4068 1.57327 21.6677 2.20082 21.6668 2.93327V24.2666C21.6668 24.9999 21.4059 25.6279 20.8842 26.1506C20.3624 26.6733 19.7344 26.9342 19.0002 26.9333H3.00016ZM7.00016 12.2666H9.66683V6.93327H7.00016V12.2666ZM11.0002 12.2666H13.6668V6.93327H11.0002V12.2666ZM15.0002 12.2666H17.6668V6.93327H15.0002V12.2666Z" fill="#D9D9D9"/>
</svg>
