<svg width="45" height="45" viewBox="0 0 45 45" fill="none" xmlns="http://www.w3.org/2000/svg">
<g clip-path="url(#clip0_5855_4339)">
<path d="M0.5 8.04004C0.5 3.62176 4.08172 0.0400391 8.5 0.0400391H36.5C40.9183 0.0400391 44.5 3.62176 44.5 8.04004V36.04C44.5 40.4583 40.9183 44.04 36.5 44.04H8.5C4.08172 44.04 0.5 40.4583 0.5 36.04V8.04004Z" fill="#292929"/>
<g clip-path="url(#clip1_5855_4339)">
<rect x="0.5" y="-0.209961" width="44" height="44" rx="8" fill="#FF7D4B"/>
<g style="mix-blend-mode:overlay" opacity="0.8" filter="url(#filter0_f_5855_4339)">
<ellipse cx="22" cy="9.29004" rx="9.5" ry="28.5" transform="rotate(90 22 9.29004)" fill="white"/>
</g>
</g>
<rect x="0.75" y="0.0400391" width="43.5" height="43.5" rx="7.75" stroke="url(#paint0_linear_5855_4339)" stroke-width="0.5"/>
<path d="M21.0663 17.1069L18.2997 14.3069C18.033 14.0402 17.8997 13.7291 17.8997 13.3736C17.8997 13.018 18.033 12.7069 18.2997 12.4402L21.0703 9.64023C21.3343 9.37357 21.6481 9.24023 22.0117 9.24023C22.3761 9.24023 22.6943 9.37357 22.9663 9.64023L25.733 12.4402C25.9997 12.7069 26.133 13.018 26.133 13.3736C26.133 13.7291 25.9997 14.0402 25.733 14.3069L22.9623 17.1069C22.6983 17.3736 22.3846 17.5069 22.021 17.5069C21.6566 17.5069 21.3383 17.3736 21.0663 17.1069ZM8.66634 32.7069C8.28856 32.7069 7.97212 32.5789 7.71701 32.3229C7.4619 32.0669 7.3339 31.7505 7.33301 31.3736V27.3736C7.33301 26.618 7.59434 25.9847 8.11701 25.4736C8.63967 24.9625 9.26723 24.7069 9.99967 24.7069H14.3663C14.8108 24.7069 15.233 24.818 15.633 25.0402C16.033 25.2625 16.3552 25.5625 16.5997 25.9402C17.2441 26.8069 18.0388 27.4847 18.9837 27.9736C19.9286 28.4625 20.9339 28.7069 21.9997 28.7069C23.0886 28.7069 24.1055 28.4625 25.0503 27.9736C25.9952 27.4847 26.7783 26.8069 27.3997 25.9402C27.6886 25.5625 28.0277 25.2625 28.417 25.0402C28.8063 24.818 29.2117 24.7069 29.633 24.7069H33.9997C34.7552 24.7069 35.3886 24.9625 35.8997 25.4736C36.4108 25.9847 36.6663 26.618 36.6663 27.3736V31.3736C36.6663 31.7513 36.5383 32.0682 36.2823 32.3242C36.0263 32.5802 35.7099 32.7078 35.333 32.7069H28.6663C28.2886 32.7069 27.9721 32.5789 27.717 32.3229C27.4619 32.0669 27.3339 31.7505 27.333 31.3736V29.6736C26.5552 30.2291 25.7161 30.6513 24.8157 30.9402C23.9152 31.2291 22.9766 31.3736 21.9997 31.3736C21.0441 31.3736 20.1108 31.2238 19.1997 30.9242C18.2886 30.6247 17.4441 30.1967 16.6663 29.6402V31.3736C16.6663 31.7513 16.5383 32.0682 16.2823 32.3242C16.0263 32.5802 15.7099 32.7078 15.333 32.7069H8.66634ZM11.333 23.3736C10.2219 23.3736 9.27745 22.9847 8.49967 22.2069C7.7219 21.4291 7.33301 20.4847 7.33301 19.3736C7.33301 18.2402 7.7219 17.2905 8.49967 16.5242C9.27745 15.758 10.2219 15.3745 11.333 15.3736C12.4663 15.3736 13.4166 15.7571 14.1837 16.5242C14.9508 17.2913 15.3339 18.2411 15.333 19.3736C15.333 20.4847 14.9499 21.4291 14.1837 22.2069C13.4175 22.9847 12.4672 23.3736 11.333 23.3736ZM32.6663 23.3736C31.5552 23.3736 30.6108 22.9847 29.833 22.2069C29.0552 21.4291 28.6663 20.4847 28.6663 19.3736C28.6663 18.2402 29.0552 17.2905 29.833 16.5242C30.6108 15.758 31.5552 15.3745 32.6663 15.3736C33.7997 15.3736 34.7499 15.7571 35.517 16.5242C36.2841 17.2913 36.6672 18.2411 36.6663 19.3736C36.6663 20.4847 36.2832 21.4291 35.517 22.2069C34.7508 22.9847 33.8006 23.3736 32.6663 23.3736Z" fill="#0E0E0E"/>
</g>
<defs>
<filter id="filter0_f_5855_4339" x="-26.5" y="-20.21" width="97" height="59" filterUnits="userSpaceOnUse" color-interpolation-filters="sRGB">
<feFlood flood-opacity="0" result="BackgroundImageFix"/>
<feBlend mode="normal" in="SourceGraphic" in2="BackgroundImageFix" result="shape"/>
<feGaussianBlur stdDeviation="10" result="effect1_foregroundBlur_5855_4339"/>
</filter>
<linearGradient id="paint0_linear_5855_4339" x1="44.5" y1="21.79" x2="0.5" y2="21.79" gradientUnits="userSpaceOnUse">
<stop stop-color="#A3A3A3" stop-opacity="0.5"/>
<stop offset="0.525" stop-color="#A3A3A3" stop-opacity="0.1"/>
<stop offset="1" stop-color="#A3A3A3" stop-opacity="0.5"/>
</linearGradient>
<clipPath id="clip0_5855_4339">
<path d="M0.5 8.04004C0.5 3.62176 4.08172 0.0400391 8.5 0.0400391H36.5C40.9183 0.0400391 44.5 3.62176 44.5 8.04004V36.04C44.5 40.4583 40.9183 44.04 36.5 44.04H8.5C4.08172 44.04 0.5 40.4583 0.5 36.04V8.04004Z" fill="white"/>
</clipPath>
<clipPath id="clip1_5855_4339">
<rect x="0.5" y="-0.209961" width="44" height="44" rx="8" fill="white"/>
</clipPath>
</defs>
</svg>
