<svg width="45" height="45" viewBox="0 0 45 45" fill="none" xmlns="http://www.w3.org/2000/svg">
<g clip-path="url(#clip0_5855_4313)">
<path d="M0.5 8.04004C0.5 3.62176 4.08172 0.0400391 8.5 0.0400391H36.5C40.9183 0.0400391 44.5 3.62176 44.5 8.04004V36.04C44.5 40.4583 40.9183 44.04 36.5 44.04H8.5C4.08172 44.04 0.5 40.4583 0.5 36.04V8.04004Z" fill="#292929"/>
<g clip-path="url(#clip1_5855_4313)">
<rect x="0.5" y="-0.209961" width="44" height="44" rx="8" fill="#FF7D4B"/>
<g style="mix-blend-mode:overlay" opacity="0.8" filter="url(#filter0_f_5855_4313)">
<ellipse cx="22" cy="9.29004" rx="9.5" ry="28.5" transform="rotate(90 22 9.29004)" fill="white"/>
</g>
</g>
<rect x="0.75" y="0.0400391" width="43.5" height="43.5" rx="7.75" stroke="url(#paint0_linear_5855_4313)" stroke-width="0.5"/>
<path d="M22 20.04C24.7614 20.04 27 17.8015 27 15.04C27 12.2786 24.7614 10.04 22 10.04C19.2386 10.04 17 12.2786 17 15.04C17 17.8015 19.2386 20.04 22 20.04Z" fill="#0E0E0E"/>
<path d="M32 28.54C32 31.5773 32 34.04 22 34.04C12 34.04 12 31.5773 12 28.54C12 25.5028 16.4775 23.04 22 23.04C27.5225 23.04 32 25.5028 32 28.54Z" fill="#0E0E0E"/>
</g>
<defs>
<filter id="filter0_f_5855_4313" x="-26.5" y="-20.21" width="97" height="59" filterUnits="userSpaceOnUse" color-interpolation-filters="sRGB">
<feFlood flood-opacity="0" result="BackgroundImageFix"/>
<feBlend mode="normal" in="SourceGraphic" in2="BackgroundImageFix" result="shape"/>
<feGaussianBlur stdDeviation="10" result="effect1_foregroundBlur_5855_4313"/>
</filter>
<linearGradient id="paint0_linear_5855_4313" x1="44.5" y1="21.79" x2="0.5" y2="21.79" gradientUnits="userSpaceOnUse">
<stop stop-color="#A3A3A3" stop-opacity="0.5"/>
<stop offset="0.525" stop-color="#A3A3A3" stop-opacity="0.1"/>
<stop offset="1" stop-color="#A3A3A3" stop-opacity="0.5"/>
</linearGradient>
<clipPath id="clip0_5855_4313">
<path d="M0.5 8.04004C0.5 3.62176 4.08172 0.0400391 8.5 0.0400391H36.5C40.9183 0.0400391 44.5 3.62176 44.5 8.04004V36.04C44.5 40.4583 40.9183 44.04 36.5 44.04H8.5C4.08172 44.04 0.5 40.4583 0.5 36.04V8.04004Z" fill="white"/>
</clipPath>
<clipPath id="clip1_5855_4313">
<rect x="0.5" y="-0.209961" width="44" height="44" rx="8" fill="white"/>
</clipPath>
</defs>
</svg>
