<svg width="47" height="47" viewBox="0 0 47 47" fill="none" xmlns="http://www.w3.org/2000/svg">
<path d="M43.5499 19.2066C44.0718 17.6213 44.2531 15.9448 44.0821 14.2855C43.9111 12.6261 43.3916 11.021 42.5572 9.57392C39.9881 5.10656 34.7954 2.84351 29.7186 3.88691C27.4993 1.39355 24.2329 0 20.846 0C18.3251 0.000276391 15.8685 0.791008 13.8258 2.25969C11.783 3.72837 10.2581 5.80019 9.46805 8.18037C7.82366 8.51734 6.27036 9.19883 4.91162 10.1794C3.55287 11.1601 2.41988 12.4173 1.5881 13.8674C0.335843 16.0385 -0.196993 18.5465 0.0651908 21.0357C0.327375 23.5249 1.37126 25.8687 3.04875 27.7348C2.53349 29.324 2.36063 31.0033 2.54144 32.6634C2.72224 34.3235 3.25266 35.9271 4.09815 37.3698C5.35124 39.5524 7.27199 41.2805 9.581 42.3029C11.89 43.3253 14.4669 43.5886 16.9367 43.0544C18.0562 44.2916 19.4238 45.2818 20.9516 45.9614C22.4793 46.641 24.1333 46.9948 25.807 47.0001C28.3283 47.0003 30.7854 46.2098 32.8286 44.7411C34.8718 43.2724 36.3971 41.2003 37.1873 38.8197C38.8313 38.4825 40.3841 37.8008 41.7424 36.8202C43.1007 35.8396 44.2334 34.5826 45.0649 33.1327C46.3234 30.9496 46.8545 28.4263 46.5819 25.9245C46.3093 23.4228 45.2494 21.0711 43.5499 19.2066ZM25.807 43.9239C23.7365 43.9425 21.7281 43.2221 20.1464 41.8935C20.2055 41.8348 20.3804 41.776 20.4395 41.7196L29.8344 36.324C30.068 36.1878 30.2612 35.9925 30.3944 35.7581C30.5276 35.5237 30.5962 35.2585 30.5931 34.9892V21.8174L34.5614 24.0805C34.6205 24.0805 34.6205 24.1369 34.6205 24.198V35.1044C34.6321 36.261 34.4125 37.4085 33.9744 38.48C33.5363 39.5516 32.8884 40.5259 32.0684 41.3464C31.2485 42.167 30.2727 42.8174 29.1978 43.2598C28.1229 43.7023 26.9703 43.9281 25.807 43.9239ZM6.78073 35.8587C5.73134 34.061 5.38154 31.9718 5.73134 29.9414C5.79042 29.9978 5.9086 30.0589 6.02441 30.1153L15.4194 35.5109C15.6463 35.6538 15.9094 35.7297 16.1781 35.7297C16.4467 35.7297 16.7098 35.6538 16.9367 35.5109L28.4329 28.8957V33.4782C28.4329 33.5393 28.4329 33.5957 28.3761 33.5957L18.863 39.05C14.6607 41.487 9.23169 40.037 6.78073 35.8587ZM4.3345 15.4372C5.38494 13.661 7.00948 12.2909 8.94335 11.5503V22.6893C8.94335 23.2134 9.23642 23.7351 9.70203 24.0241L21.2005 30.6394L17.2298 32.9024C17.1731 32.9024 17.114 32.9612 17.114 32.9024L7.60087 27.4457C6.58608 26.8773 5.6952 26.1138 4.98015 25.1996C4.2651 24.2855 3.74016 23.239 3.43593 22.1211C3.13171 21.0032 3.05427 19.8363 3.20813 18.6884C3.362 17.5405 3.74409 16.4345 4.33214 15.4348M37.0124 22.9783L25.5163 16.3631L29.4846 14.1C29.5413 14.1 29.6028 14.0413 29.6028 14.1L39.1136 19.552C40.1207 20.1284 41.0032 20.8971 41.7102 21.814C42.4172 22.7309 42.9348 23.7778 43.2332 24.8944C43.5315 26.0111 43.6047 27.1754 43.4485 28.3202C43.2924 29.4651 42.9099 30.568 42.3232 31.5653C41.2868 33.3405 39.6553 34.6965 37.7144 35.3958V24.3132C37.7334 24.0478 37.6779 23.7824 37.5539 23.5467C37.4299 23.311 37.2424 23.1142 37.0124 22.9783ZM40.9216 17.0587C40.8337 16.9871 40.7357 16.9285 40.6309 16.8848L31.236 11.4892C31.009 11.3463 30.7459 11.2704 30.4773 11.2704C30.2087 11.2704 29.9456 11.3463 29.7186 11.4892L18.2201 18.1044V13.5196C18.2201 13.4608 18.2201 13.4021 18.2792 13.4021L27.7923 7.95007C28.7988 7.37072 29.9106 6.99509 31.0637 6.84481C32.2168 6.69454 33.3884 6.77259 34.511 7.07446C35.6336 7.37634 36.6851 7.89608 37.6048 8.60375C38.5245 9.31141 39.2943 10.193 39.8699 11.1978C40.9216 12.9391 41.2714 15.0283 40.9216 17.0587ZM16.0622 25.1827L12.0915 22.9196C12.0348 22.9196 12.0348 22.8608 12.0348 22.8021V11.8981C12.0339 10.7396 12.2627 9.59233 12.7081 8.52188C13.1536 7.45142 13.8069 6.47879 14.6308 5.65963C15.4546 4.84047 16.4329 4.19086 17.5095 3.74797C18.5861 3.30507 19.74 3.07758 20.9051 3.07851C22.9755 3.05992 24.984 3.78034 26.5657 5.10891C26.4777 5.18048 26.3798 5.23905 26.275 5.28281L16.88 10.6761C16.6465 10.8123 16.4533 11.0076 16.32 11.242C16.1868 11.4764 16.1182 11.7416 16.1213 12.0109V25.1827H16.0622ZM18.2201 20.5414L23.356 17.5804L28.4919 20.5414V26.4L23.356 29.361L18.2201 26.4V20.5414Z" fill="#0E0E0E"/>
</svg>
