<svg width="27" height="27" viewBox="0 0 27 27" fill="none" xmlns="http://www.w3.org/2000/svg">
<path d="M23.4688 19.1045V14.4463C23.4688 13.9656 23.2778 13.5046 22.9379 13.1647C22.598 12.8248 22.137 12.6338 21.6563 12.6338H14.4063V7.97571C15.2605 7.75514 16.0051 7.23057 16.5002 6.50033C16.9954 5.77009 17.2073 4.88432 17.0961 4.00905C16.9849 3.13379 16.5584 2.32911 15.8963 1.74586C15.2343 1.1626 14.3823 0.84082 13.5 0.84082C12.6177 0.84082 11.7657 1.1626 11.1037 1.74586C10.4417 2.32911 10.0151 3.13379 9.9039 4.00905C9.79273 4.88432 10.0046 5.77009 10.4998 6.50033C10.995 7.23057 11.7395 7.75514 12.5938 7.97571V12.6338H5.34376C4.86305 12.6338 4.40204 12.8248 4.06213 13.1647C3.72222 13.5046 3.53126 13.9656 3.53126 14.4463V19.1045C2.67697 19.325 1.93246 19.8496 1.43728 20.5798C0.94209 21.3101 0.730227 22.1958 0.841401 23.0711C0.952575 23.9464 1.37915 24.7511 2.04117 25.3343C2.70319 25.9176 3.55521 26.2394 4.43751 26.2394C5.31981 26.2394 6.17182 25.9176 6.83384 25.3343C7.49587 24.7511 7.92244 23.9464 8.03362 23.0711C8.14479 22.1958 7.93293 21.3101 7.43774 20.5798C6.94256 19.8496 6.19804 19.325 5.34376 19.1045V14.4463H21.6563V19.1045C20.802 19.325 20.0575 19.8496 19.5623 20.5798C19.0671 21.3101 18.8552 22.1958 18.9664 23.0711C19.0776 23.9464 19.5042 24.7511 20.1662 25.3343C20.8282 25.9176 21.6802 26.2394 22.5625 26.2394C23.4448 26.2394 24.2968 25.9176 24.9588 25.3343C25.6209 24.7511 26.0474 23.9464 26.1586 23.0711C26.2698 22.1958 26.0579 21.3101 25.5627 20.5798C25.0676 19.8496 24.323 19.325 23.4688 19.1045ZM6.25001 22.6026C6.25001 22.9611 6.14371 23.3115 5.94455 23.6096C5.74539 23.9076 5.46231 24.1399 5.13112 24.2771C4.79993 24.4143 4.4355 24.4502 4.08391 24.3803C3.73232 24.3103 3.40936 24.1377 3.15588 23.8842C2.90239 23.6307 2.72977 23.3078 2.65984 22.9562C2.5899 22.6046 2.62579 22.2402 2.76298 21.909C2.90016 21.5778 3.13247 21.2947 3.43054 21.0955C3.7286 20.8964 4.07903 20.7901 4.43751 20.7901C4.91821 20.7901 5.37923 20.981 5.71914 21.321C6.05905 21.6609 6.25001 22.1219 6.25001 22.6026ZM11.6875 4.47759C11.6875 4.11911 11.7938 3.76868 11.993 3.47062C12.1921 3.17255 12.4752 2.94024 12.8064 2.80305C13.1376 2.66587 13.502 2.62998 13.8536 2.69991C14.2052 2.76985 14.5282 2.94247 14.7816 3.19596C15.0351 3.44944 15.2077 3.77239 15.2777 4.12399C15.3476 4.47558 15.3117 4.84001 15.1745 5.1712C15.0374 5.50239 14.805 5.78546 14.507 5.98462C14.2089 6.18378 13.8585 6.29009 13.5 6.29009C13.0193 6.29009 12.5583 6.09913 12.2184 5.75922C11.8785 5.41931 11.6875 4.95829 11.6875 4.47759ZM22.5625 24.4151C22.204 24.4151 21.8536 24.3088 21.5555 24.1096C21.2575 23.9105 21.0252 23.6274 20.888 23.2962C20.7508 22.965 20.7149 22.6006 20.7848 22.249C20.8548 21.8974 21.0274 21.5744 21.2809 21.321C21.5344 21.0675 21.8573 20.8948 22.2089 20.8249C22.5605 20.755 22.9249 20.7909 23.2561 20.9281C23.5873 21.0652 23.8704 21.2976 24.0695 21.5956C24.2687 21.8937 24.375 22.2441 24.375 22.6026C24.375 23.0833 24.184 23.5443 23.8441 23.8842C23.5042 24.2241 23.0432 24.4151 22.5625 24.4151Z" fill="#0E0E0E"/>
</svg>
