<svg width="49" height="48" viewBox="0 0 49 48" fill="none" xmlns="http://www.w3.org/2000/svg">
<path d="M4.79142e-06 9.80973C-0.00235435 7.42277 0.866531 5.11702 2.44358 3.32524C4.02062 1.53345 6.19739 0.378841 8.56533 0.0781131C10.9333 -0.222615 13.3296 0.351217 15.3044 1.6919C17.2793 3.03259 18.697 5.04796 19.2913 7.35972H39.4034L39.6019 7.39402C41.6634 7.75787 43.6104 8.60132 45.2859 9.85628C47.2557 11.3704 49.0001 13.764 49.0001 17.1597C49.0001 20.5554 47.2606 22.9491 45.2834 24.4632C43.6087 25.7178 41.6625 26.5612 39.6019 26.9255L39.4034 26.9598H9.80002C9.21937 26.9598 7.90862 27.3224 6.73752 28.2583C5.64236 29.1354 4.90001 30.3212 4.90001 31.8598C4.90001 33.3984 5.64236 34.5842 6.73752 35.4613C7.90862 36.3972 9.21937 36.7598 9.80002 36.7598H36.7501V30.6348L48.1842 39.2098L36.7501 47.7848V41.6598H9.80002C7.93067 41.6598 5.56641 40.7974 3.67501 39.2833C1.70766 37.7128 4.79142e-06 35.2236 4.79142e-06 31.8598C4.79142e-06 28.4959 1.70766 26.0092 3.67501 24.4363C5.56641 22.9197 7.93067 22.0597 9.80002 22.0597H38.9796C39.8959 21.876 41.2262 21.3982 42.3042 20.575C43.392 19.742 44.1001 18.664 44.1001 17.1597C44.1001 15.6554 43.3896 14.5799 42.3042 13.7444C41.3151 13.0172 40.1813 12.5109 38.9796 12.2597H19.2913C18.6893 14.5639 17.2692 16.5702 15.2962 17.904C13.3232 19.2379 10.9322 19.808 8.56958 19.5079C6.207 19.2079 4.03439 18.0582 2.45743 16.2735C0.880462 14.4889 0.006953 12.1913 4.79142e-06 9.80973Z" fill="#0E0E0E"/>
</svg>
