<svg width="29" height="30" viewBox="0 0 29 30" fill="none" xmlns="http://www.w3.org/2000/svg">
<path d="M8.4585 8.49854H7.25016C6.60922 8.49854 5.99453 8.75315 5.54132 9.20636C5.08811 9.65957 4.8335 10.2743 4.8335 10.9152V21.7902C4.8335 22.4311 5.08811 23.0458 5.54132 23.499C5.99453 23.9523 6.60922 24.2069 7.25016 24.2069H18.1252C18.7661 24.2069 19.3808 23.9523 19.834 23.499C20.2872 23.0458 20.5418 22.4311 20.5418 21.7902V20.5819" stroke="#0E0E0E" stroke-width="2.41667" stroke-linecap="round" stroke-linejoin="round"/>
<path d="M19.3333 6.08184L22.9583 9.70683M24.6319 7.99704C25.1078 7.52115 25.3751 6.87569 25.3751 6.20267C25.3751 5.52965 25.1078 4.88419 24.6319 4.40829C24.156 3.9324 23.5105 3.66504 22.8375 3.66504C22.1645 3.66504 21.519 3.9324 21.0431 4.40829L10.875 14.5402V18.1652H14.5L24.6319 7.99704Z" stroke="#0E0E0E" stroke-width="2.41667" stroke-linecap="round" stroke-linejoin="round"/>
</svg>
