<svg width="29" height="30" viewBox="0 0 29 30" fill="none" xmlns="http://www.w3.org/2000/svg">
<path fill-rule="evenodd" clip-rule="evenodd" d="M21.7504 4.87323L26.5837 9.70654V24.2065H2.41705L2.41699 11.028C2.98895 11.8975 3.78854 12.9032 4.83368 13.7561L4.83373 21.7899H24.167V10.3107L21.1462 7.28986L18.8956 7.28997C18.5874 6.68658 18.0695 5.78956 17.3247 4.87323H21.7504ZM21.7504 18.1649V19.3732H7.25042V18.1649H21.7504ZM21.7504 14.5399V15.7482H14.5004V14.5944C14.531 14.5764 14.5615 14.5582 14.5919 14.5399H21.7504ZM10.2712 2.45654C15.7692 2.45654 18.1254 8.49823 18.1254 8.49823C18.1254 8.49823 15.7692 14.5399 10.2712 14.5399C4.7733 14.5399 2.41705 8.49823 2.41705 8.49823C2.41705 8.49823 4.7733 2.45654 10.2712 2.45654ZM10.2712 3.96698C6.79973 3.96698 4.7733 7.19923 4.13711 8.49823C4.7733 9.79717 6.79967 13.0295 10.2713 13.0295C13.7428 13.0295 15.7692 9.79717 16.4054 8.49823C15.7692 7.19923 13.7428 3.96698 10.2712 3.96698ZM10.2712 5.85498C11.7894 5.85498 13.0202 7.03837 13.0202 8.49823C13.0202 9.95803 11.7894 11.1414 10.2712 11.1414C8.75304 11.1414 7.52229 9.95803 7.52229 8.49823C7.52229 7.03837 8.75304 5.85498 10.2712 5.85498ZM10.2712 7.36542C9.6206 7.36542 9.09311 7.87258 9.09311 8.49823C9.09311 9.12388 9.6206 9.63104 10.2712 9.63104C10.9219 9.63104 11.4494 9.12382 11.4494 8.49823C11.4494 7.87263 10.9219 7.36542 10.2712 7.36542Z" fill="#0E0E0E"/>
</svg>
