<svg width="27" height="27" viewBox="0 0 27 27" fill="none" xmlns="http://www.w3.org/2000/svg">
<path d="M14.887 0C16.4063 0.00251106 17.1762 0.0105505 17.8415 0.0303554L18.1036 0.0389214C18.4063 0.0496744 18.7048 0.0631816 19.0649 0.0800503C20.5014 0.146431 21.4816 0.373682 22.3422 0.707815C23.232 1.05096 23.9835 1.51447 24.7338 2.26488C25.4831 3.01526 25.9468 3.76902 26.2911 4.65666C26.624 5.51619 26.8512 6.49723 26.9188 7.93388C26.9348 8.29389 26.9478 8.59251 26.9585 8.89525L26.967 9.15727C26.9867 9.82248 26.9958 10.5925 26.9986 12.1119L26.9996 13.1185C26.9998 13.2415 26.9998 13.3684 26.9998 13.4993L26.9996 13.8802L26.9988 14.8869C26.9962 16.4062 26.9883 17.1763 26.9684 17.8414L26.9597 18.1034C26.9492 18.4064 26.9356 18.7049 26.9188 19.0649C26.8524 20.5015 26.624 21.4814 26.2911 22.342C25.9478 23.2321 25.4831 23.9836 24.7338 24.7338C23.9835 25.4831 23.2286 25.9466 22.3422 26.2909C21.4816 26.624 20.5014 26.8512 19.0649 26.9187C18.7048 26.9347 18.4063 26.9478 18.1036 26.9583L17.8415 26.9669C17.1762 26.9867 16.4063 26.9956 14.887 26.9986L13.8803 26.9997C13.7573 26.9997 13.6304 26.9997 13.4994 26.9997H13.1186L12.1119 26.9986C10.5925 26.9962 9.8225 26.9881 9.15727 26.9683L8.89525 26.9598C8.59251 26.949 8.29387 26.9355 7.93388 26.9187C6.49721 26.8524 5.51844 26.624 4.65668 26.2909C3.76789 25.9478 3.01526 25.4831 2.26486 24.7338C1.51447 23.9836 1.05209 23.2286 0.707836 22.342C0.373703 21.4814 0.147565 20.5015 0.0800706 19.0649C0.0640322 18.7049 0.0509502 18.4064 0.040339 18.1034L0.0318541 17.8414C0.0121098 17.1763 0.00309833 16.4062 0.000182261 14.8869L0 12.1119C0.00251106 10.5925 0.0105507 9.82248 0.0303557 9.15727L0.0389214 8.89525C0.0496947 8.59251 0.0631816 8.29389 0.0800706 7.93388C0.146431 6.4961 0.373703 5.51731 0.707836 4.65666C1.05096 3.76791 1.51447 3.01526 2.26486 2.26488C3.01526 1.51447 3.76902 1.05207 4.65668 0.707815C5.51733 0.373682 6.4961 0.147565 7.93388 0.0800503C8.29387 0.0640321 8.59251 0.0509503 8.89525 0.0403592L9.15727 0.0318541C9.8225 0.0120896 10.5925 0.00309833 12.1119 0.000182261L14.887 0ZM13.4994 6.74923C9.76939 6.74923 6.74923 9.77267 6.74923 13.4993C6.74923 17.2293 9.77267 20.2496 13.4994 20.2496C17.2294 20.2496 20.2495 17.2261 20.2495 13.4993C20.2495 9.76938 17.226 6.74923 13.4994 6.74923ZM13.4994 9.44929C15.7363 9.44929 17.5495 11.2619 17.5495 13.4993C17.5495 15.7362 15.7368 17.5494 13.4994 17.5494C11.2626 17.5494 9.44929 15.7369 9.44929 13.4993C9.44929 11.2625 11.2619 9.44929 13.4994 9.44929ZM20.5871 4.72418C19.6566 4.72418 18.8996 5.48007 18.8996 6.41056C18.8996 7.34107 19.6554 8.09813 20.5871 8.09813C21.5176 8.09813 22.2746 7.34224 22.2746 6.41056C22.2746 5.48007 21.5164 4.723 20.5871 4.72418Z" fill="white"/>
</svg>
