<svg width="26" height="24" viewBox="0 0 26 24" fill="none" xmlns="http://www.w3.org/2000/svg">
<path d="M5.33339 2.66789C5.33291 3.75363 4.67419 4.73067 3.66787 5.13829C2.66155 5.54591 1.50859 5.30271 0.752633 4.52337C-0.00332677 3.74403 -0.211307 2.58417 0.226753 1.59073C0.664833 0.597287 1.66147 -0.031353 2.74673 0.00120699C4.18815 0.044487 5.33405 1.22581 5.33339 2.66789ZM5.41339 7.30789H0.0800732V24.0012H5.41339V7.30789ZM13.8401 7.30789H8.53339V24.0012H13.7868V15.2412C13.7868 10.3612 20.1468 9.90785 20.1468 15.2412V24.0012H25.4134V13.4278C25.4134 5.20121 16.0001 5.50789 13.7868 9.54785L13.8401 7.30789Z" fill="white"/>
</svg>
