<svg width="18" height="18" viewBox="0 0 18 18" fill="none" xmlns="http://www.w3.org/2000/svg">
<path d="M0.75 7.50045C0.551088 7.50045 0.360322 7.42144 0.21967 7.28078C0.0790178 7.14013 0 6.94937 0 6.75045V0.751953C0 0.553041 0.0790178 0.362275 0.21967 0.221623C0.360322 0.0809709 0.551088 0.00195312 0.75 0.00195312H6.75C6.94891 0.00195312 7.13968 0.0809709 7.28033 0.221623C7.42098 0.362275 7.5 0.553041 7.5 0.751953V6.75045C7.5 6.94937 7.42098 7.14013 7.28033 7.28078C7.13968 7.42144 6.94891 7.50045 6.75 7.50045H0.75ZM11.25 7.50045C11.0511 7.50045 10.8603 7.42144 10.7197 7.28078C10.579 7.14013 10.5 6.94937 10.5 6.75045V0.751953C10.5 0.553041 10.579 0.362275 10.7197 0.221623C10.8603 0.0809709 11.0511 0.00195312 11.25 0.00195312H17.2485C17.4474 0.00195312 17.6382 0.0809709 17.7788 0.221623C17.9195 0.362275 17.9985 0.553041 17.9985 0.751953V6.75045C17.9985 6.94937 17.9195 7.14013 17.7788 7.28078C17.6382 7.42144 17.4474 7.50045 17.2485 7.50045H11.25ZM0.75 18.0005C0.551088 18.0005 0.360322 17.9214 0.21967 17.7808C0.0790178 17.6401 0 17.4494 0 17.2505V11.2505C0 11.0515 0.0790178 10.8608 0.21967 10.7201C0.360322 10.5795 0.551088 10.5005 0.75 10.5005H6.75C6.94891 10.5005 7.13968 10.5795 7.28033 10.7201C7.42098 10.8608 7.5 11.0515 7.5 11.2505V17.2505C7.5 17.4494 7.42098 17.6401 7.28033 17.7808C7.13968 17.9214 6.94891 18.0005 6.75 18.0005H0.75ZM11.25 18.0005C11.0511 18.0005 10.8603 17.9214 10.7197 17.7808C10.579 17.6401 10.5 17.4494 10.5 17.2505V11.2505C10.5 11.0515 10.579 10.8608 10.7197 10.7201C10.8603 10.5795 11.0511 10.5005 11.25 10.5005H17.2485C17.4474 10.5005 17.6382 10.5795 17.7788 10.7201C17.9195 10.8608 17.9985 11.0515 17.9985 11.2505V17.2505C17.9985 17.4494 17.9195 17.6401 17.7788 17.7808C17.6382 17.9214 17.4474 18.0005 17.2485 18.0005H11.25Z" fill="white"/>
</svg>
